<svg width="399" height="500" viewBox="0 0 399 500" fill="none" xmlns="http://www.w3.org/2000/svg">
<path d="M193.027 474.322C276.115 474.322 343.471 405.951 343.471 321.611C343.471 237.271 276.115 168.899 193.027 168.899C109.939 168.899 42.5831 237.271 42.5831 321.611C42.5831 405.951 109.939 474.322 193.027 474.322Z" fill="white"/>
<path d="M183.031 437.88L125.097 390.461C122.038 388.184 119.08 385.595 116.326 383.111L111.634 378.762C110.308 377.416 108.88 376.07 107.758 374.724C106.326 373.222 105.029 371.594 103.882 369.858C102.658 368.305 101.434 366.959 100.312 365.406C99.1428 363.807 98.0535 362.148 97.0485 360.437L93.8867 355.364C92.9687 353.707 91.9488 352.051 91.1328 350.394C90.3168 348.738 89.2969 346.563 88.4809 344.493C87.6649 342.422 87.053 341.18 86.441 339.523C85.829 337.867 85.115 335.071 84.4011 332.897C83.6871 330.723 83.3811 329.687 82.9731 328.134C82.5651 326.581 81.8512 322.958 81.4432 320.266C81.0352 317.574 81.4432 317.574 80.7292 316.228C80.2002 312.178 79.9277 308.097 79.9133 304.011C79.9133 250.485 120.712 205.862 174.973 195.508C182.878 194.008 190.901 193.246 198.942 193.231C216.164 193.077 233.227 196.58 249.035 203.516C264.844 210.452 279.049 220.667 290.738 233.505C308.113 252.76 317.787 277.9 317.869 304.011C317.862 324.364 311.898 344.256 300.734 361.162C297.166 366.793 293.03 372.033 288.393 376.795C286.149 379.176 283.701 381.558 281.253 383.835C262.78 400.126 239.951 410.469 215.67 413.549C213.656 413.823 211.727 414.545 210.02 415.665C208.314 416.785 206.873 418.274 205.801 420.025C204.728 421.777 204.051 423.748 203.818 425.796C203.584 427.845 203.8 429.921 204.45 431.875L214.65 464.488L183.031 437.88ZM363.665 412.514C365.093 410.547 366.317 408.58 367.541 406.613C368.765 404.645 371.723 400.297 373.457 397.088C375.191 393.878 375.803 392.843 376.925 390.772C378.047 388.701 380.291 384.353 381.821 381.143C383.351 377.934 383.759 376.795 384.575 374.517C385.391 372.24 387.226 367.788 388.45 364.164C389.674 360.54 389.98 360.023 390.592 357.848C391.816 354.018 392.734 350.394 393.652 346.563C394.162 344.803 394.57 342.836 395.08 341.076C396.087 335.563 396.802 329.998 397.222 324.407C397.834 318.713 398.242 312.812 398.344 307.014C398.344 305.15 398.344 303.183 398.344 301.319C398.344 297.385 398.344 293.451 398.344 289.413L397.222 282.166C397.222 278.439 396.304 274.918 395.692 271.191L394.264 264.047C393.55 260.424 392.632 256.904 391.714 253.694C390.796 250.485 390.388 248.932 389.674 246.55C388.96 244.169 387.328 239.303 385.9 235.576C384.473 231.849 384.269 231.02 383.351 228.846C381.719 224.912 379.985 220.978 378.047 217.043L375.395 211.142C372.539 205.551 369.479 199.96 366.113 194.473L365.603 193.748C357.792 181.013 348.993 168.93 339.288 157.615C293.594 103.571 248.818 46.11 222.503 11.737C219.741 8.0861 216.189 5.12878 212.121 3.09363C208.054 1.05848 203.579 0 199.044 0C194.509 0 190.035 1.05848 185.967 3.09363C181.9 5.12878 178.347 8.0861 175.585 11.737C149.372 46.11 104.494 103.571 58.8001 157.201C49.0639 168.49 40.2623 180.575 32.4852 193.334L31.9753 194.059C28.6094 199.546 25.5495 205.137 22.6937 210.728C21.7757 212.488 20.9597 214.455 20.0418 216.422C18.1038 220.356 16.3699 224.291 14.738 228.225C13.82 230.503 12.9021 232.78 12.0861 235.058C11.2701 237.336 9.6382 242.305 8.41425 246.033C7.1903 249.76 6.98631 250.795 6.37434 253.176C5.76236 255.558 4.53841 260.32 3.82444 263.53L2.3965 270.674C1.78453 274.401 1.17255 277.921 0.866567 281.648C0.560579 285.375 0.254592 286.204 0.152596 288.378C-0.0508655 292.378 -0.0508655 296.387 0.152596 300.388C0.152596 302.251 0.152596 304.011 0.152596 305.978C0.184405 311.791 0.524885 317.597 1.17255 323.372C1.79197 329.043 2.71126 334.677 3.92644 340.248C4.30667 342.101 4.78332 343.933 5.35438 345.735C6.27234 349.462 7.1903 353.293 8.41425 357.02C9.6382 360.747 9.7402 361.265 10.4542 363.336C11.1681 365.406 13.0041 370.169 14.33 373.689C15.6559 377.209 16.2679 378.141 17.1859 380.212C18.1038 382.282 20.2458 386.734 21.9797 389.944C23.7136 393.153 24.2236 394.189 25.5495 396.259C26.8755 398.33 29.4254 402.678 31.3633 405.784C33.3012 408.89 33.9132 409.719 35.2391 411.582C37.585 415.102 40.2369 418.415 42.8888 421.936C44.2148 423.488 45.3367 425.145 46.6627 426.698C50.6405 431.564 55.0263 436.327 59.6161 440.986C77.9717 459.739 99.809 474.611 123.864 484.74C147.92 494.87 173.715 500.057 199.758 500C205.368 500 210.978 500 216.69 499.171H221.177C226.073 498.55 231.377 497.929 235.967 496.997H238.211C242.698 495.962 247.186 495.03 251.674 493.684C252.687 493.469 253.677 493.157 254.632 492.752L258.406 491.613C263.302 490.06 268.095 488.404 272.889 486.437L274.827 485.712C280.131 483.641 285.027 481.053 290.331 478.465L294.002 476.497C298.796 473.806 303.488 471.114 308.078 468.008C308.394 467.763 308.736 467.555 309.098 467.387C313.892 464.177 318.685 460.553 323.377 457.033L326.641 454.341C331.231 450.407 335.821 446.369 340.002 442.021C344.184 437.673 348.876 432.599 352.956 427.837C354.282 426.284 355.404 424.627 356.73 423.074C358.702 419.485 360.912 415.965 363.359 412.514H363.665Z" fill="#FFC629"/>
<path d="M203.43 331.345C194.744 331.215 186.253 328.712 178.849 324.098C177.361 323.096 176.327 321.534 175.973 319.758C175.619 317.981 175.975 316.135 176.962 314.625C177.95 313.114 179.488 312.064 181.238 311.705C182.988 311.346 184.807 311.707 186.295 312.709C191.192 315.857 196.869 317.528 202.665 317.528C208.461 317.528 214.139 315.857 219.036 312.709C220.533 311.755 222.336 311.426 224.067 311.793C225.798 312.16 227.321 313.193 228.317 314.676C229.294 316.176 229.648 318.006 229.305 319.77C228.961 321.533 227.947 323.088 226.481 324.098C219.693 328.818 211.658 331.344 203.43 331.345Z" fill="#FFC629"/>
<path d="M240.659 281.648C237.575 283.502 235.343 286.523 234.454 290.047C233.564 293.571 234.09 297.309 235.916 300.439C237.742 303.57 240.719 305.835 244.19 306.738C247.662 307.641 251.345 307.107 254.429 305.254C255.949 304.363 257.282 303.178 258.351 301.765C259.421 300.351 260.205 298.738 260.659 297.017C261.114 295.296 261.23 293.501 261.001 291.734C260.772 289.968 260.202 288.264 259.324 286.721C258.468 285.102 257.294 283.679 255.875 282.538C254.455 281.397 252.821 280.563 251.072 280.088C249.324 279.613 247.498 279.506 245.707 279.774C243.916 280.042 242.198 280.68 240.659 281.648Z" fill="#FFC629"/>
<path d="M147.843 281.647C146.316 282.538 144.977 283.725 143.902 285.141C142.827 286.557 142.037 288.174 141.578 289.899C141.118 291.625 140.998 293.426 141.224 295.198C141.451 296.971 142.019 298.681 142.896 300.231C143.773 301.781 144.943 303.141 146.338 304.232C147.732 305.323 149.325 306.125 151.025 306.591C152.726 307.057 154.499 307.179 156.246 306.949C157.992 306.72 159.677 306.143 161.204 305.253C162.725 304.363 164.058 303.177 165.127 301.764C166.196 300.35 166.98 298.737 167.435 297.016C167.89 295.295 168.006 293.5 167.777 291.733C167.548 289.967 166.978 288.263 166.1 286.72C165.252 285.147 164.1 283.764 162.714 282.652C161.328 281.541 159.736 280.724 158.032 280.251C156.328 279.777 154.548 279.657 152.797 279.897C151.047 280.137 149.362 280.732 147.843 281.647Z" fill="#FFC629"/>
</svg>
